<?xml version="1.0" encoding="UTF-8" standalone="no"?>
<!-- Created with Inkscape (http://www.inkscape.org/) -->

<svg
   xmlns:wp="http://www.evexiallc.com"
   xmlns:dc="http://purl.org/dc/elements/1.1/"
   xmlns:cc="http://creativecommons.org/ns#"
   xmlns:rdf="http://www.w3.org/1999/02/22-rdf-syntax-ns#"
   xmlns:svg="http://www.w3.org/2000/svg"
   xmlns="http://www.w3.org/2000/svg"
   xmlns:xlink="http://www.w3.org/1999/xlink"
   xmlns:sodipodi="http://sodipodi.sourceforge.net/DTD/sodipodi-0.dtd"
   xmlns:inkscape="http://www.inkscape.org/namespaces/inkscape"
   version="1.1"
   width="300"
   height="300"
   id="Meter"
   inkscape:version="0.48.2 r9819"
   sodipodi:docname="meter1.svg">
  <metadata
     id="metadataMeter">
    <rdf:RDF>
      <cc:Work
         rdf:about="">
        <dc:format>image/svg+xml</dc:format>
        <dc:type
           rdf:resource="http://purl.org/dc/dcmitype/StillImage" />
        <dc:title />
      </cc:Work>
    </rdf:RDF>
  </metadata>
  <sodipodi:namedview
     pagecolor="#ffffff"
     bordercolor="#666666"
     borderopacity="1"
     objecttolerance="10"
     gridtolerance="10"
     guidetolerance="10"
     inkscape:pageopacity="0"
     inkscape:pageshadow="2"
     inkscape:window-width="1600"
     inkscape:window-height="838"
     id="namedviewMeter"
     showgrid="false"
     inkscape:zoom="2.1633333"
     inkscape:cx="150"
     inkscape:cy="150"
     inkscape:window-x="-8"
     inkscape:window-y="-8"
     inkscape:window-maximized="1"
     inkscape:current-layer="Meter" />
  <defs
     id="defsGradient">
    <linearGradient
       id="linearGradient3808">
      <stop
         id="stop3810"
         style="stop-color:#666666;stop-opacity:1"
         offset="0" />
      <stop
         id="stop3812"
         style="stop-color:#1a1a1a;stop-opacity:1"
         offset="1" />
    </linearGradient>
    <linearGradient
       id="linearGradient3778">
      <stop
         id="stop3780"
         style="stop-color:#cccccc;stop-opacity:1"
         offset="0" />
      <stop
         id="stop3782"
         style="stop-color:#4d4d4d;stop-opacity:1"
         offset="1" />
    </linearGradient>
    <linearGradient
       inkscape:collect="always"
       xlink:href="#linearGradient3808"
       id="linearGradient3512"
       gradientUnits="userSpaceOnUse"
       x1="6.2499938"
       y1="33.758667"
       x2="38.749992"
       y2="86.258667"
       gradientTransform="matrix(0.56218182,0.25029947,-0.23242094,0.52202597,150.96236,113.378)" />
    <linearGradient
       inkscape:collect="always"
       xlink:href="#linearGradient3778"
       id="linearGradient3656"
       gradientUnits="userSpaceOnUse"
       gradientTransform="matrix(1.0357142,0,0,1.0357143,-194.55672,-296.42773)"
       x1="400.60925"
       y1="552.91644"
       x2="262.51791"
       y2="308.28278" />
    <linearGradient
       inkscape:collect="always"
       xlink:href="#linearGradient3778"
       id="linearGradient3659"
       gradientUnits="userSpaceOnUse"
       x1="273.89624"
       y1="293.80127"
       x2="392.85132"
       y2="565.32916"
       gradientTransform="translate(-182.68705,-281.02209)" />
  </defs>
  <g
     id="wpMeter"
     wp:type="meter"
     wp:rotationMax="240"
     wp:rotationMin="0"
     wp:scaleMax="100"
     wp:scaleMin="0"
     wp:centerId="Center"
     wp:needleId="Needle"
     wp:slope="2.4"
     wp:offset="0"
     wp:numTicks="11"
     wp:valueTextId="textValue"
     wp:labelTextId="textLabel">
    <circle
       cx="150"
       cy="150"
       r="150"
       id="OuterRing"
       style="fill:#cccccc"
       d="M 150,0 C 150,82.842712 82.842712,150 0,150 -82.842712,150 -150,82.842712 -150,0 c 0,-82.842712 67.157288,-150 150,-150 82.842712,0 150,67.157288 150,150 z"
       sodipodi:cx="150"
       sodipodi:cy="150"
       sodipodi:rx="150"
       sodipodi:ry="150" />
    <path
       style="fill:url(#linearGradient3659);fill-opacity:1;stroke:none"
       id="pathOuterRing"
       d="M 299.32837,150.33581 C 299.32837,232.99307 232.32144,300 149.66418,300 67.00694,300 0,232.99307 0,150.33581 0,67.67857 67.00694,0.67163 149.66418,0.67163 c 82.65726,0 149.66419,67.00694 149.66419,149.66418 z"
       inkscape:connector-curvature="0" />
    <path
       style="fill:url(#linearGradient3656);fill-opacity:1;stroke:none"
       id="pathInnerRing"
       d="m 294.66419,150.33581 c 0,80.08128 -64.91871,145 -145.00001,145 -80.08128,0 -144.99999,-64.91872 -144.99999,-145 0,-80.08128 64.91871,-145 144.99999,-145 80.0813,0 145.00001,64.91872 145.00001,145 z"
       inkscape:connector-curvature="0" />
    <path
       style="fill:#000000;stroke:none"
       id="pathBackground"
       d="m 289.66417,150.33581 a 140,140 0 1 1 -279.9999837,0 140,140 0 1 1 279.9999837,0 z"
       inkscape:connector-curvature="0" />
    <g
       transform="translate(-182.68705,-281.02209)"
       id="gTicks">
      <rect
         style="fill:#00ffff;fill-opacity:1;stroke:none"
         id="rectTick0"
         transform="matrix(-0.5,-0.8660254,0.8660254,-0.5,0,0)"
         y="-46.85537"
         x="-541.74695"
         height="12"
         width="4" />
      <rect
         style="fill:#00ffff;fill-opacity:1;stroke:none"
         id="rectTick1"
         transform="matrix(-0.10452847,-0.9945219,0.9945219,-0.10452847,0,0)"
         y="166.44225"
         x="-465.7395"
         height="12"
         width="4" />
      <rect
         style="fill:#00ffff;fill-opacity:1;stroke:none"
         id="rectTick2"
         transform="matrix(0.30901699,-0.95105652,0.95105652,0.30901699,0,0)"
         y="330.38431"
         x="-309.5473"
         height="12"
         width="4" />
      <rect
         style="fill:#00ffff;fill-opacity:1;stroke:none"
         id="rectTick3"
         transform="matrix(0.6691306,-0.74314483,0.74314483,0.6691306,0,0)"
         y="416.62375"
         x="-100.17738"
         height="12"
         width="4" />
      <rect
         style="fill:#00ffff;fill-opacity:1;stroke:none"
         id="rectTick4"
         transform="matrix(0.91354545,-0.40673665,0.40673665,0.91354545,0,0)"
         y="410.24896"
         x="126.1683"
         height="12"
         width="4" />
      <rect
         style="fill:#00ffff;fill-opacity:1;stroke:none"
         id="rectTick5"
         y="312.36224"
         x="330.35251"
         height="12"
         width="4" />
      <rect
         style="fill:#00ffff;fill-opacity:1;stroke:none"
         id="rectTick6"
         transform="matrix(0.91354546,0.40673664,-0.40673664,0.91354546,0,0)"
         y="139.88907"
         x="477.06995"
         height="12"
         width="4" />
      <rect
         style="fill:#00ffff;fill-opacity:1;stroke:none"
         id="rectTick7"
         transform="matrix(0.66913061,0.74314482,-0.74314482,0.66913061,0,0)"
         y="-77.348381"
         x="540.95184"
         height="12"
         width="4" />
      <rect
         style="fill:#00ffff;fill-opacity:1;stroke:none"
         id="rectTick8"
         transform="matrix(0.309017,0.95105651,-0.95105651,0.309017,0,0)"
         y="-301.78778"
         x="510.95242"
         height="12"
         width="4" />
      <rect
         style="fill:#00ffff;fill-opacity:1;stroke:none"
         id="rectTick9"
         transform="matrix(-0.10452846,0.9945219,-0.9945219,-0.10452846,0,0)"
         y="-494.62149"
         x="392.25885"
         height="12"
         width="4" />
      <rect
         style="fill:#00ffff;fill-opacity:1;stroke:none"
         id="rectTick10"
         transform="matrix(-0.5,0.86602541,-0.86602541,-0.5,0,0)"
         y="-622.50684"
         x="205.39435"
         height="12"
         width="4" />
      <g
         style="fill:#00ffff"
         id="gMinor1">
        <g
           style="fill:#00ffff"
           id="g4277">
          <rect
             style="fill:#00ffff;fill-opacity:1;stroke:none"
             id="rect4261"
             transform="matrix(-0.40673664,-0.91354546,0.91354546,-0.40673664,0,0)"
             y="11.168299"
             x="-531.24896"
             height="7.9999933"
             width="4" />
          <rect
             style="fill:#00ffff;fill-opacity:1;stroke:none"
             id="rect4269"
             transform="matrix(-0.30901699,-0.95105652,0.95105652,-0.30901699,0,0)"
             y="65.787758"
             x="-514.95245"
             height="7.9999933"
             width="4" />
          <rect
             style="fill:#00ffff;fill-opacity:1;stroke:none"
             id="rect4271"
             transform="matrix(-0.20791169,-0.9781476,0.9781476,-0.20791169,0,0)"
             y="118.40456"
             x="-493.03592"
             height="7.9999933"
             width="4" />
          <rect
             style="fill:#00ffff;fill-opacity:1;stroke:none"
             id="rect4273"
             transform="matrix(-0.20791169,-0.9781476,0.9781476,-0.20791169,0,0)"
             y="118.40456"
             x="-493.03592"
             height="7.9999933"
             width="4" />
        </g>
        <rect
           style="fill:#00ffff;fill-opacity:1;stroke:none"
           id="rect4285"
           transform="matrix(-0.40673664,-0.91354546,0.91354546,-0.40673664,0,0)"
           y="11.168299"
           x="-531.24896"
           height="7.9999933"
           width="4" />
        <rect
           style="fill:#00ffff;fill-opacity:1;stroke:none"
           id="rect4287"
           transform="matrix(-0.30901699,-0.95105652,0.95105652,-0.30901699,0,0)"
           y="65.787758"
           x="-514.95245"
           height="7.9999933"
           width="4" />
        <rect
           style="fill:#00ffff;fill-opacity:1;stroke:none"
           id="rect4289"
           transform="matrix(-0.20791169,-0.9781476,0.9781476,-0.20791169,0,0)"
           y="118.40456"
           x="-493.03592"
           height="7.9999933"
           width="4" />
        <rect
           style="fill:#00ffff;fill-opacity:1;stroke:none"
           id="rect4291"
           transform="matrix(-0.20791169,-0.9781476,0.9781476,-0.20791169,0,0)"
           y="118.40456"
           x="-493.03592"
           height="7.9999933"
           width="4" />
      </g>
      <g
         style="fill:#00ffff"
         id="gMinor2"
         transform="matrix(0.91354546,0.40673664,-0.40673664,0.91354546,204.18422,-97.886736)">
        <g
           style="fill:#00ffff"
           id="g4341">
          <rect
             style="fill:#00ffff;fill-opacity:1;stroke:none"
             id="rect4343"
             transform="matrix(-0.40673664,-0.91354546,0.91354546,-0.40673664,0,0)"
             y="11.168299"
             x="-531.24896"
             height="7.9999933"
             width="4" />
          <rect
             style="fill:#00ffff;fill-opacity:1;stroke:none"
             id="rect4345"
             transform="matrix(-0.30901699,-0.95105652,0.95105652,-0.30901699,0,0)"
             y="65.787758"
             x="-514.95245"
             height="7.9999933"
             width="4" />
          <rect
             style="fill:#00ffff;fill-opacity:1;stroke:none"
             id="rect4347"
             transform="matrix(-0.20791169,-0.9781476,0.9781476,-0.20791169,0,0)"
             y="118.40456"
             x="-493.03592"
             height="7.9999933"
             width="4" />
          <rect
             style="fill:#00ffff;fill-opacity:1;stroke:none"
             id="rect4349"
             transform="matrix(-0.20791169,-0.9781476,0.9781476,-0.20791169,0,0)"
             y="118.40456"
             x="-493.03592"
             height="7.9999933"
             width="4" />
        </g>
        <rect
           style="fill:#00ffff;fill-opacity:1;stroke:none"
           id="rect4351"
           transform="matrix(-0.40673664,-0.91354546,0.91354546,-0.40673664,0,0)"
           y="11.168299"
           x="-531.24896"
           height="7.9999933"
           width="4" />
        <rect
           style="fill:#00ffff;fill-opacity:1;stroke:none"
           id="rect4353"
           transform="matrix(-0.30901699,-0.95105652,0.95105652,-0.30901699,0,0)"
           y="65.787758"
           x="-514.95245"
           height="7.9999933"
           width="4" />
        <rect
           style="fill:#00ffff;fill-opacity:1;stroke:none"
           id="rect4355"
           transform="matrix(-0.20791169,-0.9781476,0.9781476,-0.20791169,0,0)"
           y="118.40456"
           x="-493.03592"
           height="7.9999933"
           width="4" />
        <rect
           style="fill:#00ffff;fill-opacity:1;stroke:none"
           id="rect4357"
           transform="matrix(-0.20791169,-0.9781476,0.9781476,-0.20791169,0,0)"
           y="118.40456"
           x="-493.03592"
           height="7.9999933"
           width="4" />
      </g>
      <g
         style="fill:#00ffff"
         id="gMinor3"
         transform="matrix(0.66913061,0.74314482,-0.74314482,0.66913061,430.52991,-104.26152)">
        <g
           style="fill:#00ffff"
           id="g4361">
          <rect
             style="fill:#00ffff;fill-opacity:1;stroke:none"
             id="rect4363"
             transform="matrix(-0.40673664,-0.91354546,0.91354546,-0.40673664,0,0)"
             y="11.168299"
             x="-531.24896"
             height="7.9999933"
             width="4" />
          <rect
             style="fill:#00ffff;fill-opacity:1;stroke:none"
             id="rect4365"
             transform="matrix(-0.30901699,-0.95105652,0.95105652,-0.30901699,0,0)"
             y="65.787758"
             x="-514.95245"
             height="7.9999933"
             width="4" />
          <rect
             style="fill:#00ffff;fill-opacity:1;stroke:none"
             id="rect4367"
             transform="matrix(-0.20791169,-0.9781476,0.9781476,-0.20791169,0,0)"
             y="118.40456"
             x="-493.03592"
             height="7.9999933"
             width="4" />
          <rect
             style="fill:#00ffff;fill-opacity:1;stroke:none"
             id="rect4369"
             transform="matrix(-0.20791169,-0.9781476,0.9781476,-0.20791169,0,0)"
             y="118.40456"
             x="-493.03592"
             height="7.9999933"
             width="4" />
        </g>
        <rect
           style="fill:#00ffff;fill-opacity:1;stroke:none"
           id="rect4371"
           transform="matrix(-0.40673664,-0.91354546,0.91354546,-0.40673664,0,0)"
           y="11.168299"
           x="-531.24896"
           height="7.9999933"
           width="4" />
        <rect
           style="fill:#00ffff;fill-opacity:1;stroke:none"
           id="rect4373"
           transform="matrix(-0.30901699,-0.95105652,0.95105652,-0.30901699,0,0)"
           y="65.787758"
           x="-514.95245"
           height="7.9999933"
           width="4" />
        <rect
           style="fill:#00ffff;fill-opacity:1;stroke:none"
           id="rect4375"
           transform="matrix(-0.20791169,-0.9781476,0.9781476,-0.20791169,0,0)"
           y="118.40456"
           x="-493.03592"
           height="7.9999933"
           width="4" />
        <rect
           style="fill:#00ffff;fill-opacity:1;stroke:none"
           id="rect4377"
           transform="matrix(-0.20791169,-0.9781476,0.9781476,-0.20791169,0,0)"
           y="118.40456"
           x="-493.03592"
           height="7.9999933"
           width="4" />
      </g>
      <g
         style="fill:#00ffff"
         id="gMinor4"
         transform="matrix(0.309017,0.95105651,-0.95105651,0.309017,639.89984,-18.022084)">
        <g
           style="fill:#00ffff"
           id="g4381">
          <rect
             style="fill:#00ffff;fill-opacity:1;stroke:none"
             id="rect4383"
             transform="matrix(-0.40673664,-0.91354546,0.91354546,-0.40673664,0,0)"
             y="11.168299"
             x="-531.24896"
             height="7.9999933"
             width="4" />
          <rect
             style="fill:#00ffff;fill-opacity:1;stroke:none"
             id="rect4385"
             transform="matrix(-0.30901699,-0.95105652,0.95105652,-0.30901699,0,0)"
             y="65.787758"
             x="-514.95245"
             height="7.9999933"
             width="4" />
          <rect
             style="fill:#00ffff;fill-opacity:1;stroke:none"
             id="rect4387"
             transform="matrix(-0.20791169,-0.9781476,0.9781476,-0.20791169,0,0)"
             y="118.40456"
             x="-493.03592"
             height="7.9999933"
             width="4" />
          <rect
             style="fill:#00ffff;fill-opacity:1;stroke:none"
             id="rect4389"
             transform="matrix(-0.20791169,-0.9781476,0.9781476,-0.20791169,0,0)"
             y="118.40456"
             x="-493.03592"
             height="7.9999933"
             width="4" />
        </g>
        <rect
           style="fill:#00ffff;fill-opacity:1;stroke:none"
           id="rect4391"
           transform="matrix(-0.40673664,-0.91354546,0.91354546,-0.40673664,0,0)"
           y="11.168299"
           x="-531.24896"
           height="7.9999933"
           width="4" />
        <rect
           style="fill:#00ffff;fill-opacity:1;stroke:none"
           id="rect4393"
           transform="matrix(-0.30901699,-0.95105652,0.95105652,-0.30901699,0,0)"
           y="65.787758"
           x="-514.95245"
           height="7.9999933"
           width="4" />
        <rect
           style="fill:#00ffff;fill-opacity:1;stroke:none"
           id="rect4395"
           transform="matrix(-0.20791169,-0.9781476,0.9781476,-0.20791169,0,0)"
           y="118.40456"
           x="-493.03592"
           height="7.9999933"
           width="4" />
        <rect
           style="fill:#00ffff;fill-opacity:1;stroke:none"
           id="rect4397"
           transform="matrix(-0.20791169,-0.9781476,0.9781476,-0.20791169,0,0)"
           y="118.40456"
           x="-493.03592"
           height="7.9999933"
           width="4" />
      </g>
      <g
         style="fill:#00ffff"
         id="gMinor5"
         transform="matrix(-0.10452846,0.99452189,-0.99452189,-0.10452846,796.09205,145.91998)">
        <g
           style="fill:#00ffff"
           id="g4401">
          <rect
             style="fill:#00ffff;fill-opacity:1;stroke:none"
             id="rect4403"
             transform="matrix(-0.40673664,-0.91354546,0.91354546,-0.40673664,0,0)"
             y="11.168299"
             x="-531.24896"
             height="7.9999933"
             width="4" />
          <rect
             style="fill:#00ffff;fill-opacity:1;stroke:none"
             id="rect4405"
             transform="matrix(-0.30901699,-0.95105652,0.95105652,-0.30901699,0,0)"
             y="65.787758"
             x="-514.95245"
             height="7.9999933"
             width="4" />
          <rect
             style="fill:#00ffff;fill-opacity:1;stroke:none"
             id="rect4407"
             transform="matrix(-0.20791169,-0.9781476,0.9781476,-0.20791169,0,0)"
             y="118.40456"
             x="-493.03592"
             height="7.9999933"
             width="4" />
          <rect
             style="fill:#00ffff;fill-opacity:1;stroke:none"
             id="rect4409"
             transform="matrix(-0.20791169,-0.9781476,0.9781476,-0.20791169,0,0)"
             y="118.40456"
             x="-493.03592"
             height="7.9999933"
             width="4" />
        </g>
        <rect
           style="fill:#00ffff;fill-opacity:1;stroke:none"
           id="rect4411"
           transform="matrix(-0.40673664,-0.91354546,0.91354546,-0.40673664,0,0)"
           y="11.168299"
           x="-531.24896"
           height="7.9999933"
           width="4" />
        <rect
           style="fill:#00ffff;fill-opacity:1;stroke:none"
           id="rect4413"
           transform="matrix(-0.30901699,-0.95105652,0.95105652,-0.30901699,0,0)"
           y="65.787758"
           x="-514.95245"
           height="7.9999933"
           width="4" />
        <rect
           style="fill:#00ffff;fill-opacity:1;stroke:none"
           id="rect4415"
           transform="matrix(-0.20791169,-0.9781476,0.9781476,-0.20791169,0,0)"
           y="118.40456"
           x="-493.03592"
           height="7.9999933"
           width="4" />
        <rect
           style="fill:#00ffff;fill-opacity:1;stroke:none"
           id="rect4417"
           transform="matrix(-0.20791169,-0.9781476,0.9781476,-0.20791169,0,0)"
           y="118.40456"
           x="-493.03592"
           height="7.9999933"
           width="4" />
      </g>
      <g
         style="fill:#00ffff"
         id="gMinor6"
         transform="matrix(-0.49999999,0.8660254,-0.8660254,-0.49999999,872.09949,359.21761)">
        <g
           style="fill:#00ffff"
           id="g4421">
          <rect
             style="fill:#00ffff;fill-opacity:1;stroke:none"
             id="rect4423"
             transform="matrix(-0.40673664,-0.91354546,0.91354546,-0.40673664,0,0)"
             y="11.168299"
             x="-531.24896"
             height="7.9999933"
             width="4" />
          <rect
             style="fill:#00ffff;fill-opacity:1;stroke:none"
             id="rect4425"
             transform="matrix(-0.30901699,-0.95105652,0.95105652,-0.30901699,0,0)"
             y="65.787758"
             x="-514.95245"
             height="7.9999933"
             width="4" />
          <rect
             style="fill:#00ffff;fill-opacity:1;stroke:none"
             id="rect4427"
             transform="matrix(-0.20791169,-0.9781476,0.9781476,-0.20791169,0,0)"
             y="118.40456"
             x="-493.03592"
             height="7.9999933"
             width="4" />
          <rect
             style="fill:#00ffff;fill-opacity:1;stroke:none"
             id="rect4429"
             transform="matrix(-0.20791169,-0.9781476,0.9781476,-0.20791169,0,0)"
             y="118.40456"
             x="-493.03592"
             height="7.9999933"
             width="4" />
        </g>
        <rect
           style="fill:#00ffff;fill-opacity:1;stroke:none"
           id="rect4431"
           transform="matrix(-0.40673664,-0.91354546,0.91354546,-0.40673664,0,0)"
           y="11.168299"
           x="-531.24896"
           height="7.9999933"
           width="4" />
        <rect
           style="fill:#00ffff;fill-opacity:1;stroke:none"
           id="rect4433"
           transform="matrix(-0.30901699,-0.95105652,0.95105652,-0.30901699,0,0)"
           y="65.787758"
           x="-514.95245"
           height="7.9999933"
           width="4" />
        <rect
           style="fill:#00ffff;fill-opacity:1;stroke:none"
           id="rect4435"
           transform="matrix(-0.20791169,-0.9781476,0.9781476,-0.20791169,0,0)"
           y="118.40456"
           x="-493.03592"
           height="7.9999933"
           width="4" />
        <rect
           style="fill:#00ffff;fill-opacity:1;stroke:none"
           id="rect4437"
           transform="matrix(-0.20791169,-0.9781476,0.9781476,-0.20791169,0,0)"
           y="118.40456"
           x="-493.03592"
           height="7.9999933"
           width="4" />
      </g>
      <g
         style="fill:#00ffff"
         id="gMinor7"
         transform="matrix(-0.80901698,0.58778525,-0.58778525,-0.80901698,854.77978,584.9897)">
        <g
           style="fill:#00ffff"
           id="g4441">
          <rect
             style="fill:#00ffff;fill-opacity:1;stroke:none"
             id="rect4443"
             transform="matrix(-0.40673664,-0.91354546,0.91354546,-0.40673664,0,0)"
             y="11.168299"
             x="-531.24896"
             height="7.9999933"
             width="4" />
          <rect
             style="fill:#00ffff;fill-opacity:1;stroke:none"
             id="rect4445"
             transform="matrix(-0.30901699,-0.95105652,0.95105652,-0.30901699,0,0)"
             y="65.787758"
             x="-514.95245"
             height="7.9999933"
             width="4" />
          <rect
             style="fill:#00ffff;fill-opacity:1;stroke:none"
             id="rect4447"
             transform="matrix(-0.20791169,-0.9781476,0.9781476,-0.20791169,0,0)"
             y="118.40456"
             x="-493.03592"
             height="7.9999933"
             width="4" />
          <rect
             style="fill:#00ffff;fill-opacity:1;stroke:none"
             id="rect4449"
             transform="matrix(-0.20791169,-0.9781476,0.9781476,-0.20791169,0,0)"
             y="118.40456"
             x="-493.03592"
             height="7.9999933"
             width="4" />
        </g>
        <rect
           style="fill:#00ffff;fill-opacity:1;stroke:none"
           id="rect4451"
           transform="matrix(-0.40673664,-0.91354546,0.91354546,-0.40673664,0,0)"
           y="11.168299"
           x="-531.24896"
           height="7.9999933"
           width="4" />
        <rect
           style="fill:#00ffff;fill-opacity:1;stroke:none"
           id="rect4453"
           transform="matrix(-0.30901699,-0.95105652,0.95105652,-0.30901699,0,0)"
           y="65.787758"
           x="-514.95245"
           height="7.9999933"
           width="4" />
        <rect
           style="fill:#00ffff;fill-opacity:1;stroke:none"
           id="rect4455"
           transform="matrix(-0.20791169,-0.9781476,0.9781476,-0.20791169,0,0)"
           y="118.40456"
           x="-493.03592"
           height="7.9999933"
           width="4" />
        <rect
           style="fill:#00ffff;fill-opacity:1;stroke:none"
           id="rect4457"
           transform="matrix(-0.20791169,-0.9781476,0.9781476,-0.20791169,0,0)"
           y="118.40456"
           x="-493.03592"
           height="7.9999933"
           width="4" />
      </g>
      <g
         style="fill:#00ffff"
         id="gMinor8"
         transform="matrix(-0.97814759,0.20791169,-0.20791169,-0.97814759,747.12766,784.19821)">
        <g
           style="fill:#00ffff"
           id="g4461">
          <rect
             style="fill:#00ffff;fill-opacity:1;stroke:none"
             id="rect4463"
             transform="matrix(-0.40673664,-0.91354546,0.91354546,-0.40673664,0,0)"
             y="11.168299"
             x="-531.24896"
             height="7.9999933"
             width="4" />
          <rect
             style="fill:#00ffff;fill-opacity:1;stroke:none"
             id="rect4465"
             transform="matrix(-0.30901699,-0.95105652,0.95105652,-0.30901699,0,0)"
             y="65.787758"
             x="-514.95245"
             height="7.9999933"
             width="4" />
          <rect
             style="fill:#00ffff;fill-opacity:1;stroke:none"
             id="rect4467"
             transform="matrix(-0.20791169,-0.9781476,0.9781476,-0.20791169,0,0)"
             y="118.40456"
             x="-493.03592"
             height="7.9999933"
             width="4" />
          <rect
             style="fill:#00ffff;fill-opacity:1;stroke:none"
             id="rect4469"
             transform="matrix(-0.20791169,-0.9781476,0.9781476,-0.20791169,0,0)"
             y="118.40456"
             x="-493.03592"
             height="7.9999933"
             width="4" />
        </g>
        <rect
           style="fill:#00ffff;fill-opacity:1;stroke:none"
           id="rect4471"
           transform="matrix(-0.40673664,-0.91354546,0.91354546,-0.40673664,0,0)"
           y="11.168299"
           x="-531.24896"
           height="7.9999933"
           width="4" />
        <rect
           style="fill:#00ffff;fill-opacity:1;stroke:none"
           id="rect4473"
           transform="matrix(-0.30901699,-0.95105652,0.95105652,-0.30901699,0,0)"
           y="65.787758"
           x="-514.95245"
           height="7.9999933"
           width="4" />
        <rect
           style="fill:#00ffff;fill-opacity:1;stroke:none"
           id="rect4475"
           transform="matrix(-0.20791169,-0.9781476,0.9781476,-0.20791169,0,0)"
           y="118.40456"
           x="-493.03592"
           height="7.9999933"
           width="4" />
        <rect
           style="fill:#00ffff;fill-opacity:1;stroke:none"
           id="rect4477"
           transform="matrix(-0.20791169,-0.9781476,0.9781476,-0.20791169,0,0)"
           y="118.40456"
           x="-493.03592"
           height="7.9999933"
           width="4" />
      </g>
      <g
         style="fill:#00ffff"
         id="gMinor9"
         transform="matrix(-0.97814759,-0.20791169,0.20791169,-0.97814759,567.75715,922.39817)">
        <g
           style="fill:#00ffff"
           id="g4481">
          <rect
             style="fill:#00ffff;fill-opacity:1;stroke:none"
             id="rect4483"
             transform="matrix(-0.40673664,-0.91354546,0.91354546,-0.40673664,0,0)"
             y="11.168299"
             x="-531.24896"
             height="7.9999933"
             width="4" />
          <rect
             style="fill:#00ffff;fill-opacity:1;stroke:none"
             id="rect4485"
             transform="matrix(-0.30901699,-0.95105652,0.95105652,-0.30901699,0,0)"
             y="65.787758"
             x="-514.95245"
             height="7.9999933"
             width="4" />
          <rect
             style="fill:#00ffff;fill-opacity:1;stroke:none"
             id="rect4487"
             transform="matrix(-0.20791169,-0.9781476,0.9781476,-0.20791169,0,0)"
             y="118.40456"
             x="-493.03592"
             height="7.9999933"
             width="4" />
          <rect
             style="fill:#00ffff;fill-opacity:1;stroke:none"
             id="rect4489"
             transform="matrix(-0.20791169,-0.9781476,0.9781476,-0.20791169,0,0)"
             y="118.40456"
             x="-493.03592"
             height="7.9999933"
             width="4" />
        </g>
        <rect
           style="fill:#00ffff;fill-opacity:1;stroke:none"
           id="rect4491"
           transform="matrix(-0.40673664,-0.91354546,0.91354546,-0.40673664,0,0)"
           y="11.168299"
           x="-531.24896"
           height="7.9999933"
           width="4" />
        <rect
           style="fill:#00ffff;fill-opacity:1;stroke:none"
           id="rect4493"
           transform="matrix(-0.30901699,-0.95105652,0.95105652,-0.30901699,0,0)"
           y="65.787758"
           x="-514.95245"
           height="7.9999933"
           width="4" />
        <rect
           style="fill:#00ffff;fill-opacity:1;stroke:none"
           id="rect4495"
           transform="matrix(-0.20791169,-0.9781476,0.9781476,-0.20791169,0,0)"
           y="118.40456"
           x="-493.03592"
           height="7.9999933"
           width="4" />
        <rect
           style="fill:#00ffff;fill-opacity:1;stroke:none"
           id="rect4497"
           transform="matrix(-0.20791169,-0.9781476,0.9781476,-0.20791169,0,0)"
           y="118.40456"
           x="-493.03592"
           height="7.9999933"
           width="4" />
      </g>
      <g
         style="fill:#00ffff"
         id="gMinor10"
         transform="matrix(-0.80901698,-0.58778525,0.58778525,-0.80901698,347.68305,975.69356)">
        <g
           style="fill:#00ffff"
           id="g4501">
          <rect
             style="fill:#00ffff;fill-opacity:1;stroke:none"
             id="rect4503"
             transform="matrix(-0.40673664,-0.91354546,0.91354546,-0.40673664,0,0)"
             y="11.168299"
             x="-531.24896"
             height="7.9999933"
             width="4" />
          <rect
             style="fill:#00ffff;fill-opacity:1;stroke:none"
             id="rect4505"
             transform="matrix(-0.30901699,-0.95105652,0.95105652,-0.30901699,0,0)"
             y="65.787758"
             x="-514.95245"
             height="7.9999933"
             width="4" />
          <rect
             style="fill:#00ffff;fill-opacity:1;stroke:none"
             id="rect4507"
             transform="matrix(-0.20791169,-0.9781476,0.9781476,-0.20791169,0,0)"
             y="118.40456"
             x="-493.03592"
             height="7.9999933"
             width="4" />
          <rect
             style="fill:#00ffff;fill-opacity:1;stroke:none"
             id="rect4509"
             transform="matrix(-0.20791169,-0.9781476,0.9781476,-0.20791169,0,0)"
             y="118.40456"
             x="-493.03592"
             height="7.9999933"
             width="4" />
        </g>
        <rect
           style="fill:#00ffff;fill-opacity:1;stroke:none"
           id="rect4511"
           transform="matrix(-0.40673664,-0.91354546,0.91354546,-0.40673664,0,0)"
           y="11.168299"
           x="-531.24896"
           height="7.9999933"
           width="4" />
        <rect
           style="fill:#00ffff;fill-opacity:1;stroke:none"
           id="rect4513"
           transform="matrix(-0.30901699,-0.95105652,0.95105652,-0.30901699,0,0)"
           y="65.787758"
           x="-514.95245"
           height="7.9999933"
           width="4" />
        <rect
           style="fill:#00ffff;fill-opacity:1;stroke:none"
           id="rect4515"
           transform="matrix(-0.20791169,-0.9781476,0.9781476,-0.20791169,0,0)"
           y="118.40456"
           x="-493.03592"
           height="7.9999933"
           width="4" />
        <rect
           style="fill:#00ffff;fill-opacity:1;stroke:none"
           id="rect4517"
           transform="matrix(-0.20791169,-0.9781476,0.9781476,-0.20791169,0,0)"
           y="118.40456"
           x="-493.03592"
           height="7.9999933"
           width="4" />
      </g>
    </g>
    <g
       transform="translate(-182.3511,-283.3486)"
       id="gScaleText"
       wp:type="scaleText">
      <text
         sodipodi:linespacing="125%"
         style="font-size:24px;font-style:normal;font-variant:normal;font-weight:normal;font-stretch:normal;line-height:125%;letter-spacing:0px;word-spacing:0px;fill:#000000;fill-opacity:1;stroke:none;font-family:Tahoma;-inkscape-font-specification:Tahoma"
         xml:space="preserve"
         id="text0"
         transform="matrix(-0.5,-0.8660254,0.8660254,-0.5,0,0)"
         y="-50.862988"
         x="-539.73376"><tspan
           style="font-size:18px;text-align:center;text-anchor:middle;fill:#00ffff"
           id="tspan4185"
           y="-50.862988"
           x="-539.73376">0</tspan></text>
      <text
         sodipodi:linespacing="125%"
         style="font-size:24px;font-style:normal;font-variant:normal;font-weight:normal;font-stretch:normal;line-height:125%;letter-spacing:0px;word-spacing:0px;fill:#000000;fill-opacity:1;stroke:none;font-family:Tahoma;-inkscape-font-specification:Tahoma"
         xml:space="preserve"
         id="text1"
         transform="matrix(-0.10452847,-0.9945219,0.9945219,-0.10452847,0,0)"
         y="162.4335"
         x="-463.7298"><tspan
           style="font-size:18px;text-align:center;text-anchor:middle;fill:#00ffff"
           id="tspan4189"
           y="162.4335"
           x="-463.7298">10</tspan></text>
      <text
         sodipodi:linespacing="125%"
         style="font-size:24px;font-style:normal;font-variant:normal;font-weight:normal;font-stretch:normal;line-height:125%;letter-spacing:0px;word-spacing:0px;fill:#000000;fill-opacity:1;stroke:none;font-family:Tahoma;-inkscape-font-specification:Tahoma"
         xml:space="preserve"
         id="text2"
         transform="matrix(0.30901699,-0.95105652,0.95105652,0.30901699,0,0)"
         y="326.37595"
         x="-307.54123"><tspan
           style="font-size:18px;text-align:center;text-anchor:middle;fill:#00ffff"
           id="tspan4193"
           y="326.37595"
           x="-307.54123">20</tspan></text>
      <text
         sodipodi:linespacing="125%"
         style="font-size:24px;font-style:normal;font-variant:normal;font-weight:normal;font-stretch:normal;line-height:125%;letter-spacing:0px;word-spacing:0px;fill:#000000;fill-opacity:1;stroke:none;font-family:Tahoma;-inkscape-font-specification:Tahoma"
         xml:space="preserve"
         id="text3"
         transform="matrix(0.6691306,-0.74314483,0.74314483,0.6691306,0,0)"
         y="412.61722"
         x="-98.174469"><tspan
           style="font-size:18px;text-align:center;text-anchor:middle;fill:#00ffff"
           id="tspan4197"
           y="412.61722"
           x="-98.174469">30</tspan></text>
      <text
         sodipodi:linespacing="125%"
         style="font-size:24px;font-style:normal;font-variant:normal;font-weight:normal;font-stretch:normal;line-height:125%;letter-spacing:0px;word-spacing:0px;fill:#000000;fill-opacity:1;stroke:none;font-family:Tahoma;-inkscape-font-specification:Tahoma"
         xml:space="preserve"
         id="text4"
         transform="matrix(0.91354545,-0.40673665,0.40673665,0.91354545,0,0)"
         y="406.24539"
         x="128.16907"><tspan
           style="font-size:18px;text-align:center;text-anchor:middle;fill:#00ffff"
           id="tspan4201"
           y="406.24539"
           x="128.16907">40</tspan></text>
      <text
         sodipodi:linespacing="125%"
         style="font-size:24px;font-style:normal;font-variant:normal;font-weight:normal;font-stretch:normal;line-height:125%;letter-spacing:0px;word-spacing:0px;fill:#000000;fill-opacity:1;stroke:none;font-family:Tahoma;-inkscape-font-specification:Tahoma"
         xml:space="preserve"
         id="text5"
         y="308.36224"
         x="332.35254"><tspan
           style="font-size:18px;text-align:center;text-anchor:middle;fill:#00ffff"
           id="tspan4205"
           y="308.36224"
           x="332.35254">50</tspan></text>
      <text
         sodipodi:linespacing="125%"
         style="font-size:24px;font-style:normal;font-variant:normal;font-weight:normal;font-stretch:normal;line-height:125%;letter-spacing:0px;word-spacing:0px;fill:#000000;fill-opacity:1;stroke:none;font-family:Tahoma;-inkscape-font-specification:Tahoma"
         xml:space="preserve"
         id="text6"
         transform="matrix(0.91354546,0.40673664,-0.40673664,0.91354546,0,0)"
         y="135.89264"
         x="479.07074"><tspan
           style="font-size:18px;text-align:center;text-anchor:middle;fill:#00ffff"
           id="tspan4209"
           y="135.89264"
           x="479.07074">60</tspan></text>
      <text
         sodipodi:linespacing="125%"
         style="font-size:24px;font-style:normal;font-variant:normal;font-weight:normal;font-stretch:normal;line-height:125%;letter-spacing:0px;word-spacing:0px;fill:#000000;fill-opacity:1;stroke:none;font-family:Tahoma;-inkscape-font-specification:Tahoma"
         xml:space="preserve"
         id="text7"
         transform="matrix(0.66913061,0.74314482,-0.74314482,0.66913061,0,0)"
         y="-81.341858"
         x="542.95477"><tspan
           style="font-size:18px;text-align:center;text-anchor:middle;fill:#00ffff"
           id="tspan4213"
           y="-81.341858"
           x="542.95477">70</tspan></text>
      <text
         sodipodi:linespacing="125%"
         style="font-size:24px;font-style:normal;font-variant:normal;font-weight:normal;font-stretch:normal;line-height:125%;letter-spacing:0px;word-spacing:0px;fill:#000000;fill-opacity:1;stroke:none;font-family:Tahoma;-inkscape-font-specification:Tahoma"
         xml:space="preserve"
         id="text8"
         transform="matrix(0.309017,0.95105651,-0.95105651,0.309017,0,0)"
         y="-305.77942"
         x="512.9585"><tspan
           style="font-size:18px;text-align:center;text-anchor:middle;fill:#00ffff"
           id="tspan4217"
           y="-305.77942"
           x="512.9585">80</tspan></text>
      <text
         sodipodi:linespacing="125%"
         style="font-size:24px;font-style:normal;font-variant:normal;font-weight:normal;font-stretch:normal;line-height:125%;letter-spacing:0px;word-spacing:0px;fill:#000000;fill-opacity:1;stroke:none;font-family:Tahoma;-inkscape-font-specification:Tahoma"
         xml:space="preserve"
         id="text9"
         transform="matrix(-0.10452846,0.9945219,-0.9945219,-0.10452846,0,0)"
         y="-498.61276"
         x="394.26855"><tspan
           style="font-size:18px;text-align:center;text-anchor:middle;fill:#00ffff"
           id="tspan4221"
           y="-498.61276"
           x="394.26855">90</tspan></text>
      <text
         sodipodi:linespacing="125%"
         style="font-size:24px;font-style:normal;font-variant:normal;font-weight:normal;font-stretch:normal;line-height:125%;letter-spacing:0px;word-spacing:0px;fill:#000000;fill-opacity:1;stroke:none;font-family:Tahoma;-inkscape-font-specification:Tahoma"
         xml:space="preserve"
         id="text10"
         transform="matrix(-0.5,0.86602541,-0.86602541,-0.5,0,0)"
         y="-626.49927"
         x="207.40753"><tspan
           style="font-size:18px;text-align:center;text-anchor:middle;fill:#00ffff"
           id="tspan4225"
           y="-626.49927"
           x="207.40753">100</tspan></text>
    </g>
    <text
       sodipodi:linespacing="125%"
       style="font-size:18px;font-style:normal;font-variant:normal;font-weight:normal;font-stretch:normal;text-align:center;line-height:125%;letter-spacing:0px;word-spacing:0px;text-anchor:middle;fill:#00ffff;fill-opacity:1;stroke:none;font-family:Tahoma;-inkscape-font-specification:Tahoma"
       xml:space="preserve"
       id="textValue"
       y="230.34015"
       x="149.67296"
       wp:Type="value"><tspan
         id="tspanValue"
         y="230.34015"
         x="149.67296">0.00</tspan></text>
    <text
       sodipodi:linespacing="125%"
       style="font-size:18px;font-style:normal;font-variant:normal;font-weight:normal;font-stretch:normal;text-align:center;line-height:125%;letter-spacing:0px;word-spacing:0px;text-anchor:middle;fill:#00ffff;fill-opacity:1;stroke:none;font-family:Tahoma;-inkscape-font-specification:Tahoma"
       xml:space="preserve"
       id="textLabel"
       y="250.34015"
       x="150.2838"><tspan
         id="tspanLabel"
         y="250.34015"
         x="150.2838">Text Label</tspan></text>
    <path
       style="fill:#ff6600;fill-opacity:1;stroke:none"
       id="Needle"
       d="m 59.73277,204.5721 -2.00001,-3.46407 89.43298,-55.09791 4.99982,8.66004 z"
       inkscape:connector-curvature="0"
       wp:type="needle" />
    <path
       style="fill:url(#linearGradient3512);fill-opacity:1;stroke:none"
       id="pathBevel"
       d="m 167.93509,158.47055 a 20,20 0 0 1 -36.54182,-16.26946 20,20 0 1 1 36.54182,16.26946 z"
       inkscape:connector-curvature="0" />
    <circle
       sodipodi:ry="17.5"
       sodipodi:rx="17.5"
       sodipodi:cy="150"
       sodipodi:cx="150"
       d="m 349.85123,431.35791 c 0,9.66498 -7.83502,17.5 -17.5,17.5 -9.66499,0 -17.5,-7.83502 -17.5,-17.5 0,-9.66498 7.83501,-17.5 17.5,-17.5 9.66498,0 17.5,7.83502 17.5,17.5 z"
       style="fill:#4d4d4d"
       id="Center"
       r="17.5"
       cy="150"
       cx="150"
       wp:type="centerRotation" />
  </g>
</svg>
