<?xml version="1.0" encoding="UTF-8" standalone="no"?>
<!-- Created with Inkscape (http://www.inkscape.org/) -->

<svg
   xmlns:wp="http://www.evexiallc.com"
   xmlns:dc="http://purl.org/dc/elements/1.1/"
   xmlns:cc="http://creativecommons.org/ns#"
   xmlns:rdf="http://www.w3.org/1999/02/22-rdf-syntax-ns#"
   xmlns:svg="http://www.w3.org/2000/svg"
   xmlns="http://www.w3.org/2000/svg"
   xmlns:xlink="http://www.w3.org/1999/xlink"
   xmlns:sodipodi="http://sodipodi.sourceforge.net/DTD/sodipodi-0.dtd"
   xmlns:inkscape="http://www.inkscape.org/namespaces/inkscape"
   width="338.85553"
   height="204.54854"
   id="svg4427"
   version="1.1"
   inkscape:version="0.48.2 r9819"
   sodipodi:docname="meterSquareSilver.svg">
  <defs
     id="defs4429">
    <linearGradient
       id="linearGradient4660">
      <stop
         style="stop-color:#ffffff;stop-opacity:1"
         offset="0"
         id="stop4662" />
      <stop
         style="stop-color:#000000;stop-opacity:0;"
         offset="1"
         id="stop4664" />
    </linearGradient>
    <linearGradient
       id="linearGradient4654"
       inkscape:collect="always">
      <stop
         id="stop4656"
         offset="0"
         style="stop-color:#ffffff;stop-opacity:1" />
      <stop
         id="stop4658"
         offset="1"
         style="stop-color:#f9f9f9;stop-opacity:1" />
    </linearGradient>
    <linearGradient
       inkscape:collect="always"
       id="linearGradient4633">
      <stop
         style="stop-color:#ffffff;stop-opacity:1;"
         offset="0"
         id="stop4635" />
      <stop
         style="stop-color:#ffffff;stop-opacity:0;"
         offset="1"
         id="stop4637" />
    </linearGradient>
    <linearGradient
       inkscape:collect="always"
       id="linearGradient3341">
      <stop
         style="stop-color:#f9f9f9;stop-opacity:1"
         offset="0"
         id="stop3343" />
      <stop
         style="stop-color:#b3b3b3;stop-opacity:1"
         offset="1"
         id="stop3345" />
    </linearGradient>
    <linearGradient
       inkscape:collect="always"
       xlink:href="#linearGradient3341"
       id="linearGradient4565"
       gradientUnits="userSpaceOnUse"
       gradientTransform="matrix(1.0004474,0,0,0.72681375,-1.233034e-4,0.13619661)"
       x1="54.716339"
       y1="0.5367409"
       x2="275.93509"
       y2="269.41165" />
    <filter
       inkscape:collect="always"
       id="filter4602"
       color-interpolation-filters="sRGB">
      <feGaussianBlur
         inkscape:collect="always"
         stdDeviation="2.6441391"
         id="feGaussianBlur4604" />
    </filter>
    <radialGradient
       inkscape:collect="always"
       xlink:href="#linearGradient4660"
       id="radialGradient4666"
       cx="167.44333"
       cy="202.59908"
       fx="167.44333"
       fy="202.59908"
       r="149.90565"
       gradientTransform="matrix(0.9736637,4.9814266e-4,-4.8378921e-4,0.91148583,5.1855738,-30.33329)"
       gradientUnits="userSpaceOnUse" />
    <radialGradient
       inkscape:collect="always"
       xlink:href="#linearGradient4654"
       id="radialGradient4668"
       cx="168.12105"
       cy="203.90381"
       fx="168.12105"
       fy="203.90381"
       r="149.90565"
       gradientTransform="matrix(0.97366371,4.9815247e-4,-4.8379919e-4,0.91148585,4.5263334,-31.522876)"
       gradientUnits="userSpaceOnUse" />
    <linearGradient
       inkscape:collect="always"
       xlink:href="#linearGradient4633"
       id="linearGradient4672"
       gradientUnits="userSpaceOnUse"
       gradientTransform="translate(1.4174219,0.75345686)"
       x1="145.31331"
       y1="115.58168"
       x2="153.79236"
       y2="135.79706" />
  </defs>
  <sodipodi:namedview
     id="base"
     pagecolor="#ffffff"
     bordercolor="#666666"
     borderopacity="1.0"
     inkscape:pageopacity="0.0"
     inkscape:pageshadow="2"
     inkscape:zoom="2.0281573"
     inkscape:cx="87.667127"
     inkscape:cy="107.9861"
     inkscape:document-units="px"
     inkscape:current-layer="svg4427"
     showgrid="false"
     fit-margin-top="0"
     fit-margin-left="0"
     fit-margin-right="0"
     fit-margin-bottom="0"
     inkscape:window-width="1600"
     inkscape:window-height="838"
     inkscape:window-x="-8"
     inkscape:window-y="-8"
     inkscape:window-maximized="1"
     showguides="true"
     inkscape:guide-bbox="true" />
  <metadata
     id="metadata4432">
    <rdf:RDF>
      <cc:Work
         rdf:about="">
        <dc:format>image/svg+xml</dc:format>
        <dc:type
           rdf:resource="http://purl.org/dc/dcmitype/StillImage" />
        <dc:title />
      </cc:Work>
    </rdf:RDF>
  </metadata>
  <g
     wp:valueTextId="textValue"
     wp:scaleMin="0"
     wp:scaleMax="60"
     wp:rotationMin="0"
     wp:rotationMax="240"
     wp:slope="2.4"
     wp:offset="0"
     wp:numTicks="7"
     wp:needleId="Needle"
     wp:labelTextId="textLabel"
     wp:centerId="Center"
     wp:type="meter"
     id="wpMeter"
     transform="translate(-0.07381597,-0.07381597)">
    <rect
       style="fill:#b3b3b3;fill-opacity:1;stroke:none;filter:url(#filter4602)"
       id="rectShadow"
       width="330"
       height="200"
       x="3.9444728"
       y="2.9231861"
       rx="9.91611"
       ry="7.3267775"
       transform="matrix(0.9861196,0,0,0.95821697,3.3623102,4.0971349)" />
    <path
       id="pathBacklight"
       style="fill:url(#radialGradient4668);fill-opacity:1;stroke:url(#radialGradient4666);stroke-width:1.000561;stroke-opacity:1"
       d="m 170.01164,109.92568 c -33.13702,0 -59.99989,26.89311 -59.99989,60.06744 0,2.47346 0.17862,4.89436 0.46875,7.28944 l 119.06228,0 c 0.29013,-2.39508 0.46875,-4.81598 0.46875,-7.28944 0,-33.17433 -26.86287,-60.06744 -59.99989,-60.06744 z M 29.599039,18.28312 l 272.113741,0 c 7.39508,0 13.34851,4.722342 13.34851,10.588209 l 0,137.813431 c 0,5.86587 -5.95343,10.58821 -13.34851,10.58821 l -272.113741,0 c -7.395069,0 -13.3485,-4.72234 -13.3485,-10.58821 l 0,-137.813431 c 0,-5.865867 5.953431,-10.588209 13.3485,-10.588209 z"
       inkscape:connector-curvature="0" />
    <g
       style="fill:#000000"
       id="gTicks"
       transform="translate(-162.68704,-261.01902)">
      <rect
         width="4"
         height="12"
         x="-309.5473"
         y="330.38431"
         transform="matrix(0.30901699,-0.95105652,0.95105652,0.30901699,0,0)"
         id="rectTick0"
         style="fill:#000000;fill-opacity:1;stroke:none" />
      <rect
         width="4"
         height="12"
         x="-100.17738"
         y="416.62375"
         transform="matrix(0.6691306,-0.74314483,0.74314483,0.6691306,0,0)"
         id="rectTick1"
         style="fill:#000000;fill-opacity:1;stroke:none" />
      <rect
         width="4"
         height="12"
         x="126.1683"
         y="410.24896"
         transform="matrix(0.91354545,-0.40673665,0.40673665,0.91354545,0,0)"
         id="rectTick2"
         style="fill:#000000;fill-opacity:1;stroke:none" />
      <rect
         width="4"
         height="12"
         x="330.35251"
         y="312.36224"
         id="rectTick3"
         style="fill:#000000;fill-opacity:1;stroke:none" />
      <rect
         width="4"
         height="12"
         x="477.06995"
         y="139.88907"
         transform="matrix(0.91354546,0.40673664,-0.40673664,0.91354546,0,0)"
         id="rectTick4"
         style="fill:#000000;fill-opacity:1;stroke:none" />
      <rect
         width="4"
         height="12"
         x="540.95184"
         y="-77.348381"
         transform="matrix(0.66913061,0.74314482,-0.74314482,0.66913061,0,0)"
         id="rectTick5"
         style="fill:#000000;fill-opacity:1;stroke:none" />
      <rect
         width="4"
         height="12"
         x="510.95242"
         y="-301.78778"
         transform="matrix(0.309017,0.95105651,-0.95105651,0.309017,0,0)"
         id="rectTick6"
         style="fill:#000000;fill-opacity:1;stroke:none" />
      <g
         transform="matrix(0.66913061,0.74314482,-0.74314482,0.66913061,430.52991,-104.26152)"
         id="gMinor0"
         style="fill:#000000">
        <g
           id="g4361"
           style="fill:#000000">
          <rect
             width="4"
             height="7.9999933"
             x="-531.24896"
             y="11.168299"
             transform="matrix(-0.40673664,-0.91354546,0.91354546,-0.40673664,0,0)"
             id="rect4363"
             style="fill:#000000;fill-opacity:1;stroke:none" />
          <rect
             width="4"
             height="7.9999933"
             x="-514.95245"
             y="65.787758"
             transform="matrix(-0.30901699,-0.95105652,0.95105652,-0.30901699,0,0)"
             id="rect4365"
             style="fill:#000000;fill-opacity:1;stroke:none" />
          <rect
             width="4"
             height="7.9999933"
             x="-493.03592"
             y="118.40456"
             transform="matrix(-0.20791169,-0.9781476,0.9781476,-0.20791169,0,0)"
             id="rect4367"
             style="fill:#000000;fill-opacity:1;stroke:none" />
          <rect
             width="4"
             height="7.9999933"
             x="-493.03592"
             y="118.40456"
             transform="matrix(-0.20791169,-0.9781476,0.9781476,-0.20791169,0,0)"
             id="rect4369"
             style="fill:#000000;fill-opacity:1;stroke:none" />
        </g>
        <rect
           width="4"
           height="7.9999933"
           x="-531.24896"
           y="11.168299"
           transform="matrix(-0.40673664,-0.91354546,0.91354546,-0.40673664,0,0)"
           id="rect4371"
           style="fill:#000000;fill-opacity:1;stroke:none" />
        <rect
           width="4"
           height="7.9999933"
           x="-514.95245"
           y="65.787758"
           transform="matrix(-0.30901699,-0.95105652,0.95105652,-0.30901699,0,0)"
           id="rect4373"
           style="fill:#000000;fill-opacity:1;stroke:none" />
        <rect
           width="4"
           height="7.9999933"
           x="-493.03592"
           y="118.40456"
           transform="matrix(-0.20791169,-0.9781476,0.9781476,-0.20791169,0,0)"
           id="rect4375"
           style="fill:#000000;fill-opacity:1;stroke:none" />
        <rect
           width="4"
           height="7.9999933"
           x="-493.03592"
           y="118.40456"
           transform="matrix(-0.20791169,-0.9781476,0.9781476,-0.20791169,0,0)"
           id="rect4377"
           style="fill:#000000;fill-opacity:1;stroke:none" />
      </g>
      <g
         transform="matrix(0.309017,0.95105651,-0.95105651,0.309017,639.89984,-18.022084)"
         id="gMinor1"
         style="fill:#000000">
        <g
           id="g4381"
           style="fill:#000000">
          <rect
             width="4"
             height="7.9999933"
             x="-531.24896"
             y="11.168299"
             transform="matrix(-0.40673664,-0.91354546,0.91354546,-0.40673664,0,0)"
             id="rect4383"
             style="fill:#000000;fill-opacity:1;stroke:none" />
          <rect
             width="4"
             height="7.9999933"
             x="-514.95245"
             y="65.787758"
             transform="matrix(-0.30901699,-0.95105652,0.95105652,-0.30901699,0,0)"
             id="rect4385"
             style="fill:#000000;fill-opacity:1;stroke:none" />
          <rect
             width="4"
             height="7.9999933"
             x="-493.03592"
             y="118.40456"
             transform="matrix(-0.20791169,-0.9781476,0.9781476,-0.20791169,0,0)"
             id="rect4387"
             style="fill:#000000;fill-opacity:1;stroke:none" />
          <rect
             width="4"
             height="7.9999933"
             x="-493.03592"
             y="118.40456"
             transform="matrix(-0.20791169,-0.9781476,0.9781476,-0.20791169,0,0)"
             id="rect4389"
             style="fill:#000000;fill-opacity:1;stroke:none" />
        </g>
        <rect
           width="4"
           height="7.9999933"
           x="-531.24896"
           y="11.168299"
           transform="matrix(-0.40673664,-0.91354546,0.91354546,-0.40673664,0,0)"
           id="rect4391"
           style="fill:#000000;fill-opacity:1;stroke:none" />
        <rect
           width="4"
           height="7.9999933"
           x="-514.95245"
           y="65.787758"
           transform="matrix(-0.30901699,-0.95105652,0.95105652,-0.30901699,0,0)"
           id="rect4393"
           style="fill:#000000;fill-opacity:1;stroke:none" />
        <rect
           width="4"
           height="7.9999933"
           x="-493.03592"
           y="118.40456"
           transform="matrix(-0.20791169,-0.9781476,0.9781476,-0.20791169,0,0)"
           id="rect4395"
           style="fill:#000000;fill-opacity:1;stroke:none" />
        <rect
           width="4"
           height="7.9999933"
           x="-493.03592"
           y="118.40456"
           transform="matrix(-0.20791169,-0.9781476,0.9781476,-0.20791169,0,0)"
           id="rect4397"
           style="fill:#000000;fill-opacity:1;stroke:none" />
      </g>
      <g
         transform="matrix(-0.10452846,0.99452189,-0.99452189,-0.10452846,796.09205,145.91998)"
         id="gMinor2"
         style="fill:#000000">
        <g
           id="g4401"
           style="fill:#000000">
          <rect
             width="4"
             height="7.9999933"
             x="-531.24896"
             y="11.168299"
             transform="matrix(-0.40673664,-0.91354546,0.91354546,-0.40673664,0,0)"
             id="rect4403"
             style="fill:#000000;fill-opacity:1;stroke:none" />
          <rect
             width="4"
             height="7.9999933"
             x="-514.95245"
             y="65.787758"
             transform="matrix(-0.30901699,-0.95105652,0.95105652,-0.30901699,0,0)"
             id="rect4405"
             style="fill:#000000;fill-opacity:1;stroke:none" />
          <rect
             width="4"
             height="7.9999933"
             x="-493.03592"
             y="118.40456"
             transform="matrix(-0.20791169,-0.9781476,0.9781476,-0.20791169,0,0)"
             id="rect4407"
             style="fill:#000000;fill-opacity:1;stroke:none" />
          <rect
             width="4"
             height="7.9999933"
             x="-493.03592"
             y="118.40456"
             transform="matrix(-0.20791169,-0.9781476,0.9781476,-0.20791169,0,0)"
             id="rect4409"
             style="fill:#000000;fill-opacity:1;stroke:none" />
        </g>
        <rect
           width="4"
           height="7.9999933"
           x="-531.24896"
           y="11.168299"
           transform="matrix(-0.40673664,-0.91354546,0.91354546,-0.40673664,0,0)"
           id="rect4411"
           style="fill:#000000;fill-opacity:1;stroke:none" />
        <rect
           width="4"
           height="7.9999933"
           x="-514.95245"
           y="65.787758"
           transform="matrix(-0.30901699,-0.95105652,0.95105652,-0.30901699,0,0)"
           id="rect4413"
           style="fill:#000000;fill-opacity:1;stroke:none" />
        <rect
           width="4"
           height="7.9999933"
           x="-493.03592"
           y="118.40456"
           transform="matrix(-0.20791169,-0.9781476,0.9781476,-0.20791169,0,0)"
           id="rect4415"
           style="fill:#000000;fill-opacity:1;stroke:none" />
        <rect
           width="4"
           height="7.9999933"
           x="-493.03592"
           y="118.40456"
           transform="matrix(-0.20791169,-0.9781476,0.9781476,-0.20791169,0,0)"
           id="rect4417"
           style="fill:#000000;fill-opacity:1;stroke:none" />
      </g>
      <g
         transform="matrix(-0.49999999,0.8660254,-0.8660254,-0.49999999,872.09949,359.21761)"
         id="gMinor3"
         style="fill:#000000">
        <g
           id="g4421"
           style="fill:#000000">
          <rect
             width="4"
             height="7.9999933"
             x="-531.24896"
             y="11.168299"
             transform="matrix(-0.40673664,-0.91354546,0.91354546,-0.40673664,0,0)"
             id="rect4423"
             style="fill:#000000;fill-opacity:1;stroke:none" />
          <rect
             width="4"
             height="7.9999933"
             x="-514.95245"
             y="65.787758"
             transform="matrix(-0.30901699,-0.95105652,0.95105652,-0.30901699,0,0)"
             id="rect4425"
             style="fill:#000000;fill-opacity:1;stroke:none" />
          <rect
             width="4"
             height="7.9999933"
             x="-493.03592"
             y="118.40456"
             transform="matrix(-0.20791169,-0.9781476,0.9781476,-0.20791169,0,0)"
             id="rect4427"
             style="fill:#000000;fill-opacity:1;stroke:none" />
          <rect
             width="4"
             height="7.9999933"
             x="-493.03592"
             y="118.40456"
             transform="matrix(-0.20791169,-0.9781476,0.9781476,-0.20791169,0,0)"
             id="rect4429"
             style="fill:#000000;fill-opacity:1;stroke:none" />
        </g>
        <rect
           width="4"
           height="7.9999933"
           x="-531.24896"
           y="11.168299"
           transform="matrix(-0.40673664,-0.91354546,0.91354546,-0.40673664,0,0)"
           id="rect4431"
           style="fill:#000000;fill-opacity:1;stroke:none" />
        <rect
           width="4"
           height="7.9999933"
           x="-514.95245"
           y="65.787758"
           transform="matrix(-0.30901699,-0.95105652,0.95105652,-0.30901699,0,0)"
           id="rect4433"
           style="fill:#000000;fill-opacity:1;stroke:none" />
        <rect
           width="4"
           height="7.9999933"
           x="-493.03592"
           y="118.40456"
           transform="matrix(-0.20791169,-0.9781476,0.9781476,-0.20791169,0,0)"
           id="rect4435"
           style="fill:#000000;fill-opacity:1;stroke:none" />
        <rect
           width="4"
           height="7.9999933"
           x="-493.03592"
           y="118.40456"
           transform="matrix(-0.20791169,-0.9781476,0.9781476,-0.20791169,0,0)"
           id="rect4437"
           style="fill:#000000;fill-opacity:1;stroke:none" />
      </g>
      <g
         transform="matrix(-0.80901698,0.58778525,-0.58778525,-0.80901698,854.77978,584.9897)"
         id="gMinor4"
         style="fill:#000000">
        <g
           id="g4441"
           style="fill:#000000">
          <rect
             width="4"
             height="7.9999933"
             x="-531.24896"
             y="11.168299"
             transform="matrix(-0.40673664,-0.91354546,0.91354546,-0.40673664,0,0)"
             id="rect4443"
             style="fill:#000000;fill-opacity:1;stroke:none" />
          <rect
             width="4"
             height="7.9999933"
             x="-514.95245"
             y="65.787758"
             transform="matrix(-0.30901699,-0.95105652,0.95105652,-0.30901699,0,0)"
             id="rect4445"
             style="fill:#000000;fill-opacity:1;stroke:none" />
          <rect
             width="4"
             height="7.9999933"
             x="-493.03592"
             y="118.40456"
             transform="matrix(-0.20791169,-0.9781476,0.9781476,-0.20791169,0,0)"
             id="rect4447"
             style="fill:#000000;fill-opacity:1;stroke:none" />
          <rect
             width="4"
             height="7.9999933"
             x="-493.03592"
             y="118.40456"
             transform="matrix(-0.20791169,-0.9781476,0.9781476,-0.20791169,0,0)"
             id="rect4449"
             style="fill:#000000;fill-opacity:1;stroke:none" />
        </g>
        <rect
           width="4"
           height="7.9999933"
           x="-531.24896"
           y="11.168299"
           transform="matrix(-0.40673664,-0.91354546,0.91354546,-0.40673664,0,0)"
           id="rect4451"
           style="fill:#000000;fill-opacity:1;stroke:none" />
        <rect
           width="4"
           height="7.9999933"
           x="-514.95245"
           y="65.787758"
           transform="matrix(-0.30901699,-0.95105652,0.95105652,-0.30901699,0,0)"
           id="rect4453"
           style="fill:#000000;fill-opacity:1;stroke:none" />
        <rect
           width="4"
           height="7.9999933"
           x="-493.03592"
           y="118.40456"
           transform="matrix(-0.20791169,-0.9781476,0.9781476,-0.20791169,0,0)"
           id="rect4455"
           style="fill:#000000;fill-opacity:1;stroke:none" />
        <rect
           width="4"
           height="7.9999933"
           x="-493.03592"
           y="118.40456"
           transform="matrix(-0.20791169,-0.9781476,0.9781476,-0.20791169,0,0)"
           id="rect4457"
           style="fill:#000000;fill-opacity:1;stroke:none" />
      </g>
      <g
         transform="matrix(-0.97814759,0.20791169,-0.20791169,-0.97814759,747.12766,784.19821)"
         id="gMinor5"
         style="fill:#000000">
        <g
           id="g4461"
           style="fill:#000000">
          <rect
             width="4"
             height="7.9999933"
             x="-531.24896"
             y="11.168299"
             transform="matrix(-0.40673664,-0.91354546,0.91354546,-0.40673664,0,0)"
             id="rect4463"
             style="fill:#000000;fill-opacity:1;stroke:none" />
          <rect
             width="4"
             height="7.9999933"
             x="-514.95245"
             y="65.787758"
             transform="matrix(-0.30901699,-0.95105652,0.95105652,-0.30901699,0,0)"
             id="rect4465"
             style="fill:#000000;fill-opacity:1;stroke:none" />
          <rect
             width="4"
             height="7.9999933"
             x="-493.03592"
             y="118.40456"
             transform="matrix(-0.20791169,-0.9781476,0.9781476,-0.20791169,0,0)"
             id="rect4467"
             style="fill:#000000;fill-opacity:1;stroke:none" />
          <rect
             width="4"
             height="7.9999933"
             x="-493.03592"
             y="118.40456"
             transform="matrix(-0.20791169,-0.9781476,0.9781476,-0.20791169,0,0)"
             id="rect4469"
             style="fill:#000000;fill-opacity:1;stroke:none" />
        </g>
        <rect
           width="4"
           height="7.9999933"
           x="-531.24896"
           y="11.168299"
           transform="matrix(-0.40673664,-0.91354546,0.91354546,-0.40673664,0,0)"
           id="rect4471"
           style="fill:#000000;fill-opacity:1;stroke:none" />
        <rect
           width="4"
           height="7.9999933"
           x="-514.95245"
           y="65.787758"
           transform="matrix(-0.30901699,-0.95105652,0.95105652,-0.30901699,0,0)"
           id="rect4473"
           style="fill:#000000;fill-opacity:1;stroke:none" />
        <rect
           width="4"
           height="7.9999933"
           x="-493.03592"
           y="118.40456"
           transform="matrix(-0.20791169,-0.9781476,0.9781476,-0.20791169,0,0)"
           id="rect4475"
           style="fill:#000000;fill-opacity:1;stroke:none" />
        <rect
           width="4"
           height="7.9999933"
           x="-493.03592"
           y="118.40456"
           transform="matrix(-0.20791169,-0.9781476,0.9781476,-0.20791169,0,0)"
           id="rect4477"
           style="fill:#000000;fill-opacity:1;stroke:none" />
      </g>
    </g>
    <g
       style="fill:#000000"
       wp:type="scaleText"
       id="gScaleText"
       transform="translate(-162.35109,-263.34553)">
      <text
         x="-307.54123"
         y="326.37595"
         transform="matrix(0.30901699,-0.95105652,0.95105652,0.30901699,0,0)"
         id="text2"
         xml:space="preserve"
         style="font-size:24px;font-style:normal;font-variant:normal;font-weight:normal;font-stretch:normal;line-height:125%;letter-spacing:0px;word-spacing:0px;fill:#000000;fill-opacity:1;stroke:none;font-family:Tahoma;-inkscape-font-specification:Tahoma"
         sodipodi:linespacing="125%"><tspan
           x="-307.54123"
           y="326.37595"
           id="tspan4193"
           style="font-size:18px;text-align:center;text-anchor:middle;fill:#000000">0</tspan></text>
      <text
         x="-98.174469"
         y="412.61722"
         transform="matrix(0.6691306,-0.74314483,0.74314483,0.6691306,0,0)"
         id="text3"
         xml:space="preserve"
         style="font-size:24px;font-style:normal;font-variant:normal;font-weight:normal;font-stretch:normal;line-height:125%;letter-spacing:0px;word-spacing:0px;fill:#000000;fill-opacity:1;stroke:none;font-family:Tahoma;-inkscape-font-specification:Tahoma"
         sodipodi:linespacing="125%"><tspan
           x="-98.174469"
           y="412.61722"
           id="tspan4197"
           style="font-size:18px;text-align:center;text-anchor:middle;fill:#000000">10</tspan></text>
      <text
         x="128.16907"
         y="406.24539"
         transform="matrix(0.91354545,-0.40673665,0.40673665,0.91354545,0,0)"
         id="text4"
         xml:space="preserve"
         style="font-size:24px;font-style:normal;font-variant:normal;font-weight:normal;font-stretch:normal;line-height:125%;letter-spacing:0px;word-spacing:0px;fill:#000000;fill-opacity:1;stroke:none;font-family:Tahoma;-inkscape-font-specification:Tahoma"
         sodipodi:linespacing="125%"><tspan
           x="128.16907"
           y="406.24539"
           id="tspan4201"
           style="font-size:18px;text-align:center;text-anchor:middle;fill:#000000">20</tspan></text>
      <text
         x="332.35254"
         y="308.36224"
         id="text5"
         xml:space="preserve"
         style="font-size:24px;font-style:normal;font-variant:normal;font-weight:normal;font-stretch:normal;line-height:125%;letter-spacing:0px;word-spacing:0px;fill:#000000;fill-opacity:1;stroke:none;font-family:Tahoma;-inkscape-font-specification:Tahoma"
         sodipodi:linespacing="125%"><tspan
           x="332.35254"
           y="308.36224"
           id="tspan4205"
           style="font-size:18px;text-align:center;text-anchor:middle;fill:#000000">30</tspan></text>
      <text
         x="479.07074"
         y="135.89264"
         transform="matrix(0.91354546,0.40673664,-0.40673664,0.91354546,0,0)"
         id="text6"
         xml:space="preserve"
         style="font-size:24px;font-style:normal;font-variant:normal;font-weight:normal;font-stretch:normal;line-height:125%;letter-spacing:0px;word-spacing:0px;fill:#000000;fill-opacity:1;stroke:none;font-family:Tahoma;-inkscape-font-specification:Tahoma"
         sodipodi:linespacing="125%"><tspan
           x="479.07074"
           y="135.89264"
           id="tspan4209"
           style="font-size:18px;text-align:center;text-anchor:middle;fill:#000000">40</tspan></text>
      <text
         x="542.95477"
         y="-81.341858"
         transform="matrix(0.66913061,0.74314482,-0.74314482,0.66913061,0,0)"
         id="text7"
         xml:space="preserve"
         style="font-size:24px;font-style:normal;font-variant:normal;font-weight:normal;font-stretch:normal;line-height:125%;letter-spacing:0px;word-spacing:0px;fill:#000000;fill-opacity:1;stroke:none;font-family:Tahoma;-inkscape-font-specification:Tahoma"
         sodipodi:linespacing="125%"><tspan
           x="542.95477"
           y="-81.341858"
           id="tspan4213"
           style="font-size:18px;text-align:center;text-anchor:middle;fill:#000000">50</tspan></text>
      <text
         x="512.9585"
         y="-305.77942"
         transform="matrix(0.309017,0.95105651,-0.95105651,0.309017,0,0)"
         id="text8"
         xml:space="preserve"
         style="font-size:24px;font-style:normal;font-variant:normal;font-weight:normal;font-stretch:normal;line-height:125%;letter-spacing:0px;word-spacing:0px;fill:#000000;fill-opacity:1;stroke:none;font-family:Tahoma;-inkscape-font-specification:Tahoma"
         sodipodi:linespacing="125%"><tspan
           x="512.9585"
           y="-305.77942"
           id="tspan4217"
           style="font-size:18px;text-align:center;text-anchor:middle;fill:#000000">60</tspan></text>
    </g>
    <circle
       cx="170"
       cy="170"
       r="10"
       id="Center"
       style="fill:none"
       sodipodi:cx="170"
       sodipodi:cy="170"
       sodipodi:rx="10"
       sodipodi:ry="10"
       d="m 180,170 c 0,5.52285 -4.47715,10 -10,10 -5.52285,0 -10,-4.47715 -10,-10 0,-5.52285 4.47715,-10 10,-10 5.52285,0 10,4.47715 10,10 z"
       wp:type="centerRotation" />
    <path
       wp:type="needle"
       inkscape:connector-curvature="0"
       d="m 69.653509,139.95052 1.236078,-3.80419 100.788213,29.59405 -0.80681,2.4829 -2.28343,7.02717 z"
       id="Needle"
       style="fill:#008080;fill-opacity:1;stroke:none"
       inkscape:transform-center-x="49.475629"
       inkscape:transform-center-y="-14.614171"
       sodipodi:nodetypes="cccccc" />
    <path
       style="fill:url(#linearGradient4565);fill-opacity:1;stroke:#cccccc;stroke-width:0.85236806;stroke-linecap:round;stroke-linejoin:miter;stroke-miterlimit:4;stroke-opacity:1;stroke-dasharray:none"
       d="M 10.40625,0.5 C 4.912725,0.5 0.5,3.7534653 0.5,7.8125 l 0,180.875 C 0.5,192.74653 4.912725,196 10.40625,196 l 309.3125,0 c 5.49352,0 9.90625,-3.25347 9.90625,-7.3125 l 0,-180.875 C 329.625,3.7534653 325.21227,0.5 319.71875,0.5 l -309.3125,0 z m 19.1875,17.78125 272.125,0 c 7.39508,0 13.34375,4.727883 13.34375,10.59375 l 0,137.8125 c 0,5.86587 -5.94867,10.59375 -13.34375,10.59375 l -72.1875,0 C 229.82138,174.88617 230,172.47346 230,170 c 0,-33.17433 -26.86298,-60.0625 -60,-60.0625 -33.13702,0 -60,26.88817 -60,60.0625 0,2.47346 0.17862,4.88617 0.46875,7.28125 l -80.875,0 c -7.395069,0 -13.34375,-4.72788 -13.34375,-10.59375 l 0,-137.8125 c 0,-5.865867 5.948681,-10.59375 13.34375,-10.59375 z"
       id="rectFrame"
       inkscape:connector-curvature="0" />
    <text
       x="170.28391"
       y="170.34299"
       id="textLabel"
       xml:space="preserve"
       style="font-size:17.99997902px;font-style:normal;font-variant:normal;font-weight:normal;font-stretch:normal;text-align:center;line-height:125%;letter-spacing:0px;word-spacing:0px;text-anchor:middle;fill:#000000;fill-opacity:1;stroke:none;font-family:Tahoma;-inkscape-font-specification:Tahoma"
       sodipodi:linespacing="125%"
       transform="scale(0.9999988,1.0000012)"><tspan
         style="fill:#000000"
         x="170.28391"
         y="170.34299"
         id="tspanLabel">Text Label</tspan></text>
    <text
       wp:Type="value"
       x="169.67296"
       y="150.3432"
       id="textValue"
       xml:space="preserve"
       style="font-size:18px;font-style:normal;font-variant:normal;font-weight:normal;font-stretch:normal;text-align:center;line-height:125%;letter-spacing:0px;word-spacing:0px;text-anchor:middle;fill:#000000;fill-opacity:1;stroke:none;font-family:Tahoma;-inkscape-font-specification:Tahoma"
       sodipodi:linespacing="125%"><tspan
         style="fill:#000000"
         x="169.67296"
         y="150.3432"
         id="tspanValue">0.00</tspan></text>
    <path
       style="opacity:0.63821136;fill:url(#linearGradient4672);fill-opacity:1;stroke:none"
       d="m 111.6237,179.78427 c -4.18766,-22.60649 6.88781,-46.90496 26.71455,-59.00514 19.38728,-12.41627 46.16232,-12.0712 65.16117,0.94163 19.115,12.38226 29.39832,36.2851 25.23961,58.40858"
       id="pathHighlight"
       inkscape:connector-curvature="0" />
  </g>
</svg>
